<?xml version="1.0" encoding="utf-8"?>
<!-- Generator: Adobe Illustrator 15.1.0, SVG Export Plug-In . SVG Version: 6.00 Build 0)  -->
<!DOCTYPE svg PUBLIC "-//W3C//DTD SVG 1.1//EN" "http://www.w3.org/Graphics/SVG/1.1/DTD/svg11.dtd">
<svg version="1.1" id="Calque_1" xmlns="http://www.w3.org/2000/svg" xmlns:xlink="http://www.w3.org/1999/xlink" x="0px" y="0px"
	 width="431.745px" height="200px" viewBox="-179.039 -82.902 431.745 200" enable-background="new -179.039 -82.902 431.745 200"
	 xml:space="preserve">
<g>
	<path fill="#006FB7" d="M-37.457,44.637c0.728,0.756,10.145,10.749,10.145,10.749c5.945,6.269,12.099,12.755,18.359,19.711
		l0.095,0.104l0.647-0.166l-0.014-11.981l0.037-6.464l-0.006-2.304c-0.006-4.584-0.017-8.537,0.281-11.139l0.069-0.63
		c0.353-3.243,0.542-5.02,3.576-5.547l0.18-0.028v-0.877h-0.223h-12.661v0.848l0.181,0.034c5.452,1.112,6.79,2.677,6.841,7.965
		l0.066,4.184c0,0-0.028,15.207-0.028,16.256l-0.006-0.006c-9.443-9.901-27.398-28.73-27.756-29.188
		c0.008-0.006,0.008-0.012,0.008-0.023c0-0.068-0.507-0.068-7.847-0.068h-0.221v0.848l0.164,0.04c6.337,1.599,6.601,4.006,6.601,9.3
		v8.4l0.017,5.685c0,8.611-0.533,12.193-5.931,12.915l-0.201,0.022v0.859h14.205v-0.848l-0.175-0.034
		c-5.873-1.353-6.426-3.381-6.426-12.239l0.023-6.085C-37.457,54.928-37.457,45.657-37.457,44.637z"/>
	<path fill="#006FB7" d="M36.961,35.389c-10.827,0-18.394,8.079-18.394,19.659c0,11.82,7.409,19.763,18.445,19.763
		c10.858,0,18.445-8.103,18.445-19.711C55.458,46.006,50.616,35.389,36.961,35.389z M37.617,73.458
		c-8.572,0-13.202-10.188-13.202-19.757c0-8.171,3.796-16.967,12.147-16.967c7.979,0,12.895,9.827,13.05,19.316
		C49.613,64.704,45.493,73.458,37.617,73.458z"/>
	<path fill="#006FB7" d="M-146.819,53.037l0.198,0.023c6.913,0.963,8.263,1.902,8.263,10.509v1.559c0,5.071-2.957,7.438-9.294,7.438
		c-13.683,0-23.616-11.254-23.616-26.771c0-13.58,7.95-23.075,19.338-23.075c8.091,0,13.801,5.221,15.66,14.331l0.034,0.184h0.699
		l0.275-13.145l-0.146-0.058c-5.223-1.902-10.721-2.911-15.901-2.911c-13.442,0-27.73,9.639-27.73,27.516
		c0,15.477,10.778,26.289,26.209,26.289c5.905,0,13.062-1.615,20.149-4.561l0.14-0.046l0.038-2.579v-6.623
		c0-4.63,0.203-6.899,4.862-8.022l0.178-0.04v-0.951h-19.356V53.037z"/>
	<path fill="#006FB7" d="M-71.852,63.225c-1.26,6.796-4.354,9.558-10.686,9.558c-2.985,0-5.011-0.591-6.206-1.8
		c-1.221-1.243-1.367-2.962-1.367-4.584c0-0.264,0-0.526,0.006-0.79l0.005-0.723c0,0,0-8.743,0-9.174c0.404,0,3.948,0,3.948,0
		c3.455,0,6.443,0,7.162,4.785l0.032,0.194h0.762V48.207h-0.762l-0.023,0.2c-0.616,4.584-3.487,4.951-7.171,4.951
		c0,0-3.544,0-3.948,0c0-0.436,0-15.517,0-15.952c0.416,0,5.343,0,5.343,0c4.753,0,9.652,0,10.099,7.064l0.017,0.213h0.774
		l0.143-8.618h-0.229h-26.392v0.848l0.187,0.029c5.469,0.854,5.498,2.332,5.598,7.236l0.023,1.071v19.706l-0.023,1.065
		c-0.106,4.905-0.129,6.389-5.598,7.243l-0.187,0.022v0.848h27.564l0.049-0.16c1.092-3.655,1.596-6.956,1.653-10.692l0.005-0.229
		h-0.745L-71.852,63.225z"/>
	<path fill="#006FB7" d="M192.816,63.225c-1.249,6.796-4.344,9.558-10.681,9.558c-2.979,0-5.008-0.591-6.211-1.8
		c-1.215-1.243-1.358-2.962-1.358-4.584c0-0.264,0-0.526,0.006-0.79l0.006-0.723c0,0,0-8.743,0-9.174c0.396,0,3.947,0,3.947,0
		c3.599,0,6.441,0,7.163,4.785l0.034,0.194h0.768V48.207h-0.768l-0.034,0.2c-0.607,4.584-3.473,4.951-7.163,4.951
		c0,0-3.541,0-3.947,0c0-0.436,0-15.517,0-15.952c0.406,0,5.334,0,5.334,0c4.751,0,9.661,0,10.114,7.064l0.017,0.213h0.768
		l0.144-8.618h-0.229h-26.392v0.848l0.188,0.029c5.467,0.854,5.501,2.332,5.593,7.236l0.034,1.071v19.706l-0.034,1.06
		c-0.104,4.911-0.126,6.395-5.593,7.249l-0.188,0.022v0.848h27.572l0.046-0.16c1.083-3.667,1.587-6.968,1.645-10.692l0.012-0.229
		h-0.757L192.816,63.225z"/>
	<path fill="#006FB7" d="M125.249,36.065v0.848l0.188,0.029c5.483,0.854,5.507,2.332,5.604,7.248l0.022,1.06v19.706l-0.022,1.06
		c-0.098,4.911-0.121,6.395-5.604,7.249l-0.188,0.022v0.848h16.072v-0.848l-0.195-0.022c-5.472-0.854-5.506-2.332-5.598-7.249
		l-0.023-1.06V45.245l0.023-1.055c0.103-4.916,0.126-6.395,5.598-7.243l0.195-0.028v-0.854h-0.229H125.249z"/>
	<path fill="#006FB7" d="M106.477,63.827c-3.69,6.796-5.065,9.334-12.566,8.738l-6.303-0.516c-0.602-2.682-0.602-5.604-0.602-8.44
		V44.086c0-4.87,0.24-6.314,5.627-7.145l0.194-0.029v-0.848h-0.229H76.755v0.848l0.189,0.029c5.472,0.854,5.506,2.332,5.604,7.236
		l0.034,1.071v19.706l-0.034,1.065c-0.104,4.911-0.132,6.389-5.604,7.243l-0.189,0.022v0.848h27.739l2.864-10.417l-0.642-0.332
		L106.477,63.827z"/>
	<path fill="#006FB7" d="M252.522,73.745c-8.079-1.993-12.835-11.242-16.651-18.69l-0.154-0.304c0.017,0.062-0.144-0.206-0.27-0.419
		l0,0c4.274-2.108,6.246-5.019,6.246-9.179c0-1.335-0.688-3.559-2.613-5.421c-1.896-1.834-5.661-3.954-12.823-3.701l-11.833-0.012
		v0.791l0.201,0.022c5.512,0.59,5.689,2.154,5.689,10.389v17.826c-0.144,5.523-0.189,7.386-6.045,8.297l-0.195,0.028v0.843h17.23
		v-0.843l-0.195-0.028c-6.618-1.043-6.801-2.108-6.801-8.309v-9.014c0.378,0.035,2.596,0.247,2.596,0.247
		c2.67,0.126,4.979,0.24,6.48,3.725c1.02,2.337,3.655,7.322,7.002,11.201c2.642,3.043,6.017,3.187,10.687,3.398l1.501,0.08
		l0.132-0.733L252.522,73.745z M224.296,55.065c0-0.446,0-17.43,0-17.859c3.048-0.029,7.231,0.864,9.879,3.478
		c1.547,1.524,2.326,3.438,2.326,5.649C236.501,52.584,229.018,55.008,224.296,55.065z"/>
	<rect x="60.901" y="4.031" fill="#006FB7" width="145.214" height="1.45"/>
	<rect x="-132.446" y="4.031" fill="#006FB7" width="130.993" height="1.45"/>
	<path fill="#006FB7" d="M-23.522,103.3c0,2.572,1.874,6.939,8.878,6.939c6.449,0,8.813-3.353,9.821-4.773l0.095-0.138l-0.828-0.252
		c-0.985,1.215-3.269,4.32-8.689,4.32c-1.602,0-3.349-0.493-4.154-1.157c-0.951-0.768-1.519-2.108-1.519-3.581
		c0-2.596,1.115-6.842,2.922-9.186c1.479-1.971,3.685-2.968,6.546-2.968c4.232,0,5.745,2.642,5.745,5.116l-0.146,1.037l0.089,0.138
		h0.739c0.679-2.51,0.925-3.649,0.925-5.02c-2.14-1.369-4.733-2.068-7.346-2.068C-17.812,91.703-23.522,97.937-23.522,103.3z"/>
	<path fill="#006FB7" d="M1.991,92.906l-0.052,0.138l0.281,0.023c1.802,0.148,2.71,0.396,2.71,0.733c0,0.47-0.974,2.762-1.292,3.512
		l-0.086,0.207l-0.284,0.636c-1.049,2.355-4.234,9.534-4.234,10.738c0,0.813,1.177,1.237,2.341,1.237
		c2.547,0,4.512-1.994,5.24-2.854c-0.029-0.172-0.564-0.493-0.564-0.493c-0.785,0.607-2.676,2.373-3.756,2.373
		c-0.556,0-0.879-0.241-0.879-0.653c0-0.733,1.263-3.53,3.326-8.183c2.3-5.174,2.541-5.741,3.128-7.575l0.046-0.148l-5.65-0.241
		C2.166,92.43,1.991,92.906,1.991,92.906z"/>
	<path fill="#006FB7" d="M17.808,107.077c-1.607,1.295-3.103,1.988-3.753,1.988c-0.418,0-0.951-0.321-0.951-0.653
		c0-0.653,1.16-3.129,2.1-5.123c0.874-1.856,1.41-3.008,1.41-3.306v-0.476c-0.118-0.115-1.252-0.161-1.252-0.161L14.118,99.3h-2.653
		c-0.109,0.081-0.287,0.643-0.287,0.643l-0.046,0.148h1.221c0.851,0,1.478,0.218,1.478,0.413c0,0.252-0.582,1.535-1.191,2.894
		c-0.974,2.137-2.072,4.578-2.072,5.415c0,0.492,0.281,1.329,2.201,1.329c1.965,0,3.913-0.871,5.615-2.521
		C18.378,107.46,17.808,107.077,17.808,107.077z"/>
	<path fill="#006FB7" d="M17.358,92.476c-0.676,0-1.427,0.511-1.427,1.232c0,0.688,0.65,1.237,1.461,1.237
		c0.811,0,1.461-0.55,1.461-1.237C18.854,93.113,18.327,92.476,17.358,92.476z"/>
	<path fill="#006FB7" d="M32.936,109.179c-0.324,0-0.562-0.355-0.562-0.596c0-0.344,0.607-1.748,1.232-2.842
		c0.556-1.009,1.854-3.479,1.854-4.665c0-0.618-0.247-2.068-2.496-2.068c-2.34,0-4.492,1.49-6.283,2.951
		c0.868-1.931,0.934-2.148,0.934-2.452c0-0.499-0.542-0.499-0.722-0.499l-1.034,0.058c-0.006,0-1.097,0.086-1.097,0.086h-1.911
		c-0.112,0.074-0.324,0.607-0.324,0.607l-0.06,0.148l1.616,0.035c0.47,0.046,0.851,0.12,0.851,0.39c0,0.344-0.868,2.292-1.158,2.876
		l-2.733,6.584h0.163h2.071c1.842-4.532,2.43-5.896,4.43-7.569c1.315-1.089,3.329-2.246,4.478-2.246
		c0.544,0,0.879,0.447,0.879,0.859c0,0.756-0.699,2.097-1.255,3.175l-0.229,0.44c-0.559,1.106-1.601,3.187-1.601,4.224
		c0,1.467,1.472,1.467,2.031,1.467c2.421,0,3.79-1.146,5.08-2.43l0.111-0.109l-0.699-0.372
		C35.594,107.976,34.104,109.179,32.936,109.179z"/>
	<path fill="#006FB7" d="M47.974,107.077c-1.616,1.295-3.095,1.988-3.759,1.988c-0.413,0-0.946-0.321-0.946-0.653
		c0-0.653,1.164-3.129,2.104-5.123c0.865-1.856,1.403-3.008,1.403-3.306v-0.476c-0.12-0.115-1.249-0.161-1.249-0.161L44.284,99.3
		h-2.659c-0.103,0.081-0.28,0.643-0.28,0.643l-0.052,0.148h1.215c0.859,0,1.49,0.218,1.49,0.413c0,0.252-0.585,1.535-1.198,2.894
		c-0.968,2.137-2.068,4.578-2.068,5.415c0,0.492,0.286,1.329,2.2,1.329c1.972,0,3.908-0.871,5.615-2.521
		C48.546,107.46,47.974,107.077,47.974,107.077z"/>
	<path fill="#006FB7" d="M47.515,92.476c-0.664,0-1.421,0.511-1.421,1.232c0,0.688,0.659,1.237,1.455,1.237
		c0.814,0,1.468-0.55,1.468-1.237C49.017,93.113,48.49,92.476,47.515,92.476z"/>
	<path fill="#006FB7" d="M62.975,100.762c-0.975-1.238-2.372-1.72-3.393-1.72c-4.309,0-8.377,4.659-8.377,8.274
		c0,1.45,1.271,3.014,4.051,3.014c2.058,0,3.363-0.802,4.28-1.501c-0.132,0.012-3.507,8.119-3.507,8.119l-0.068,0.149h2.097
		c0.104-0.069,7.873-17.637,7.873-17.637L66,99.306h-1.982C63.937,99.358,63.135,100.521,62.975,100.762z M55.508,109.419
		c-1.18,0-1.977-0.796-1.977-1.541c0-1.948,3.427-7.993,6.452-7.993c1.054,0,1.908,0.939,1.908,2.08
		C61.892,102.945,60.694,109.419,55.508,109.419z"/>
	<path fill="#006FB7" d="M84.497,107.219c-1.673,1.238-2.876,1.938-3.438,1.938c-0.446,0-0.733-0.275-0.733-0.711
		c0-0.939,1.524-4.045,2.625-6.314c0.768-1.57,1.163-2.396,1.163-2.59c0-0.286-0.373-0.413-0.567-0.413h-1.071
		c-0.201,0-0.573,0.098-0.705,0.355c0,0.006-1.387,2.934-1.387,2.934c-1.191,2.533-2.83,4.476-4.854,5.776
		c-1.553,0.997-2.768,1.226-2.916,1.226c-0.298,0-0.739-0.206-0.739-0.63c0-0.441,0.67-2.567,1.479-4.274l1.449-3.129
		c0.258-0.516,0.677-1.455,0.722-2.028c-0.114-0.12-5.116,0.023-5.116,0.023c-0.109,0.08-0.292,0.584-0.292,0.584l-0.046,0.149
		l1.547,0.022c0.206,0,0.882,0.166,0.882,0.396c0,0.218-0.366,1.105-0.578,1.587l-1.794,4.28c-0.034,0.063-0.647,1.519-0.647,2.264
		c0,1.009,0.889,1.593,2.453,1.593c2.383,0,3.679-0.939,6.079-2.762c-0.028,0.315-0.092,0.963-0.092,0.963
		c0,1.329,1.101,1.799,2.034,1.799c1.874,0,3.547-1.203,5.071-2.51C85.024,107.581,84.497,107.219,84.497,107.219z"/>
	<path fill="#006FB7" d="M96.822,98.9c-4.652,0-9.06,3.907-9.06,8.033c0,2.16,1.479,3.397,4.058,3.397
		c2.859,0,5.076-1.449,6.876-2.87l0.108-0.08l-0.602-0.562c-2.768,2.051-4.744,2.36-5.685,2.36c-1.771,0-2.154-1.621-2.154-2.246
		l0.109-0.963c0.028,0.046,5.397-1.982,5.397-1.982c3.363-1.479,4.04-2.406,4.04-3.415C99.911,99.438,98.902,98.9,96.822,98.9z
		 M90.593,105.094c0.218-0.94,0.699-2.757,2.292-4.074c0.939-0.785,2.446-1.272,3.301-1.272c0.562,0,1.341,0.321,1.341,0.917
		C97.527,102.097,95.739,103.226,90.593,105.094z"/>
	<path fill="#006FB7" d="M20.673,11.97c3.028-1.114,5.962-3.762,9.944-4.02c2.922-0.189,7.088,2.289,10.051-0.47
		c2.687-2.504-1.642-4.836-1.35-5.475c0.218-0.487,0.896-0.556,2.261-0.599c2.446-0.063,5.392,1.017,8.515,1.086
		c3.959,0.083,7.746-2.891,8.687-4.61c1.031-1.851-0.172-3.275-3.896-4.309c-1.765-0.487-3.381-0.902-3.455-1.261
		c-0.121-0.533,0.154-1.372,3.684-2.412c3.221-0.951,8.618,0.816,12.664,0.341c3.913-0.458,10.973-4.323,11.19-7.412
		c0.372-5.243-7.604-4.406-9.271-4.547c-1.231-0.1-1.713,0.078-1.965-0.45c-0.229-0.496,1.483-1.891,5.042-3.14
		c3.335-1.163,8.687-1.028,12.045-1.879c3.202-0.802,8.073-3.641,8.491-6.008c0.47-2.627-1.873-3.725-4.716-4.24
		c-2.606-0.476-5.014,0.103-5.495-0.229c-0.47-0.341-0.143-1.252,1.513-2.441c1.604-1.152,3.828-1.456,6.412-2.613
		c2.985-1.338,5.713-3.865,5.977-5.226c0.39-1.937-1.238-3.57-3.667-4.12c-2.092-0.476-5.387,0.716-6.034,0.287
		c-0.532-0.341,0.189-1.301,1.243-2.206c1.376-1.172,3.484-2.604,4.791-3.914c1.695-1.708,3.002-3.876,1.639-6.489
		c-1.055-2.023-4.172-0.65-5.421-1.501c-0.584-0.393-1.227-1.045-0.63-2.928c0.354-1.115,2.057-4.607,2.085-6.914
		c0.029-2.028-1.713-3.349-1.833-3.449v-0.006c0,0-1.685-1.579-3.759-1.126c-2.258,0.487-5.341,2.845-6.366,3.415
		c-1.73,0.957-2.39,0.281-2.894-0.206c-1.077-1.054-1.329-4.962-3.529-5.598c-2.819-0.808-4.699,0.899-6.028,2.899
		c-1.025,1.538-2.012,3.896-2.888,5.463c-0.677,1.22-1.479,2.111-1.914,1.659c-0.55-0.55-0.034-4.02-0.911-5.974
		c-1.025-2.269-2.945-3.544-4.762-2.785c-1.289,0.533-3.518,3.467-4.24,6.647c-0.618,2.765-0.476,5-1.289,6.807
		c-0.842,1.854-1.667,2.352-2.097,1.954c-0.419-0.393-0.327-2.871-1.312-5.34c-1.065-2.676-2.607-4.753-5.083-3.773
		c-2.246,0.874-4.054,6.22-4.217,9.518c-0.166,3.455,1.025,8.678,0.55,12.17c-0.521,3.748-1.55,5.701-2.077,5.572
		c-0.57-0.14-0.493-0.65-0.84-1.836c-0.47-1.607-1.232-9.598-6.289-8.191c-2.982,0.834-5.375,8.515-5.048,12.44
		c0.341,4.065,3.134,9.007,2.842,12.351c-0.324,3.662-1.097,4.088-1.639,4.088c-0.364,0-1.086-1.507-1.917-3.143
		c-1.75-3.438-3.387-4.338-5-2.965c-1.49,1.269-3.363,5.816-2.501,9.678c0.676,3.057,2.771,6.094,3.18,8.506
		c0.235,1.344,0.306,2.031-0.129,2.335c-0.567,0.413-3.713-3.372-5.632-0.247c-2.111,3.453,1.579,7.417,1.965,10.317
		c0.542,3.965-1.473,7.357-1.965,10.543c-0.404,2.653,0.341,3.925,0.94,4.518c-1.181,1.55-5.616,7.329-6.578,8.601
		c-1.209,1.593-4.125,5.42-4.125,5.42s0.441,0.551,1.192,1.101C5.2,25.917,6.105,26.45,6.105,26.45s1.301-2.292,4.054-6.303
		c1.977-2.874,4.911-6.887,5.874-8.208C16.731,12.397,18.138,12.896,20.673,11.97z M26.025-4.455
		c-0.407-1.965-1.556-7.34-3.088-12.689l0.882-0.301c1.318,4.578,2.667,9.512,3.166,11.741c1.192-1.556,2.484-3.232,3.891-5.057
		c0.985-1.275,2.143-2.742,3.421-4.338c-0.141-1.301-0.464-4.492-0.885-7.334c-0.928-6.312-1.636-10.655-1.642-10.701l0.908-0.16
		c0.005,0.043,0.991,4.372,1.925,10.686c0.298,2.066,0.599,4.934,0.745,6.208c2.665-3.292,5.75-7.042,8.913-10.838
		c-0.08-3.65-0.148-5.991-0.298-9.575c-0.24-5.698-0.733-13.514-0.733-13.591l0.929-0.04c0,0.083,0.67,7.827,0.951,13.531
		c0.126,2.665,0.298,5.839,0.332,8.249c2.831-3.39,5.673-6.765,8.263-9.827c0.092-2.928,0.327-10.75,0.218-17.955l0.929,0.028
		c0.148,6.26,0.177,13.173,0.091,16.454c4.355-5.157,7.816-9.194,8.996-10.555c0.155-1.808,0.43-6.409,0.637-9.506l0.819-0.023
		c-0.126,2.381-0.321,6.618-0.35,8.237c6.91-7.979,11.89-13.6,12.016-13.749l0.424,0.413c-0.126,0.14-4.928,5.796-11.552,13.706
		c1.766-0.464,4.71-1.109,7.249-1.871l0.234,0.756c-3.982,1.197-8.755,2.676-8.812,2.687c-2.75,3.292-5.775,6.905-8.893,10.649
		c2.188-0.464,8.079-1.753,16.078-3.332l0.218,0.902C62.47-39.7,54.592-37.763,54.517-37.74l-0.006-0.023
		c-2.778,3.35-5.604,6.77-8.349,10.128c1.628-0.301,4.562-0.851,8.492-1.421c7.031-1.02,13.534-1.73,13.608-1.742l0.132,0.914
		c-0.08,0.011-7.93,1.14-13.562,2.014c-5.942,0.914-9.644,1.63-9.85,1.67c-3.123,3.816-6.114,7.466-8.784,10.815
		c1.148-0.117,3.197-0.258,6.71-0.447c6.589-0.353,10.818-0.264,10.864-0.264l0.017,0.928c-0.052,0-4.452,0.175-10.812,0.533
		c-5.804,0.324-7.578,0.587-7.83,0.622c-1.137,1.438-2.217,2.811-3.203,4.085c-1.427,1.831-2.722,3.518-3.925,5.085
		c2.189,0.054,5.991,0.206,11.835,0.705L39.76-3.229c-6.653-0.51-11.443-0.421-12.692-0.41
		c-8.062,10.526-10.896,14.692-10.924,14.74l-1.103-0.939C15.081,10.105,18.026,6.008,26.025-4.455z"/>
</g>
</svg>
